<svg xmlns="http://www.w3.org/2000/svg" style="display: none">
	<symbol id="play" viewBox="0 0 24 24">
		<path fill="currentColor"
			d="M10.396 18.433c2.641-2.574 6.604-6.433 6.604-6.433s-3.963-3.859-6.604-6.433c-0.363-0.349-0.853-0.567-1.396-0.567-1.104 0-2 0.896-2 2v10c0 1.104 0.896 2 2 2 0.543 0 1.033-0.218 1.396-0.567z"/>
	</symbol>
  <symbol id="pause" viewBox="0 0 24 24">
		<path fill="currentColor"
			d="M8 6c-1.104 0-2 0.896-2 2v8c0 1.104 0.896 2 2 2s2-0.896 2-2v-8c0-1.104-0.896-2-2-2zM15 6c-1.104 0-2 0.896-2 2v8c0 1.104 0.896 2 2 2s2-0.896 2-2v-8c0-1.104-0.896-2-2-2z"/>
	</symbol>
  <symbol id="reset" viewBox="0 0 24 24">
		<path fill="currentColor"
			d="M12.872 13.191h5.128v-5.127c-0.008-1.135-0.671-1.408-1.473-0.605l-1.154 1.158c-1.015-0.795-2.257-1.23-3.566-1.23-1.55 0-3.009 0.604-4.104 1.701-1.099 1.092-1.703 2.553-1.703 4.103 0 1.553 0.604 3.012 1.701 4.107 1.097 1.097 2.555 1.702 4.106 1.702 1.55 0 3.009-0.605 4.106-1.703 0.296-0.297 0.558-0.621 0.78-0.965 0.347-0.541 0.19-1.26-0.35-1.605-0.539-0.346-1.258-0.189-1.604 0.35-0.133 0.207-0.292 0.4-0.468 0.58-0.659 0.658-1.534 1.020-2.464 1.020s-1.805-0.361-2.464-1.020c-0.657-0.658-1.020-1.533-1.020-2.465 0-0.93 0.362-1.805 1.020-2.461 0.659-0.658 1.534-1.021 2.464-1.021 0.688 0 1.346 0.201 1.909 0.572l-1.448 1.451c-0.803 0.802-0.53 1.458 0.604 1.458z"/>
	</symbol>
</svg>
